<svg xmlns="http://www.w3.org/2000/svg" viewBox="0 0 600 650" font-family="system-ui, -apple-system, sans-serif">
<rect width="600" height="650" fill="white" />
<text x="300" y="30" text-anchor="middle" font-size="18" font-weight="600" fill="#374151">Bomee Jung</text>
<circle cx="300" cy="300" r="55.0" fill="none" stroke="#b0b7c3" stroke-width="0.5" stroke-dasharray="4,4" />
<text x="292" y="249.0" text-anchor="end" font-size="10" fill="#9ca3af">1</text>
<circle cx="300" cy="300" r="110.0" fill="none" stroke="#b0b7c3" stroke-width="0.5" stroke-dasharray="4,4" />
<text x="292" y="194.0" text-anchor="end" font-size="10" fill="#9ca3af">2</text>
<circle cx="300" cy="300" r="165.0" fill="none" stroke="#b0b7c3" stroke-width="0.5" stroke-dasharray="4,4" />
<text x="292" y="139.0" text-anchor="end" font-size="10" fill="#9ca3af">3</text>
<circle cx="300" cy="300" r="220.0" fill="none" stroke="#b0b7c3" stroke-width="0.5" stroke-dasharray="4,4" />
<text x="292" y="84.0" text-anchor="end" font-size="10" fill="#9ca3af">4</text>
<line x1="300" y1="300" x2="300.0" y2="70.0" stroke="#9ca3af" stroke-width="1" />
<line x1="300" y1="300" x2="333.0" y2="242.8" stroke="#d1d5db" stroke-width="0.5" stroke-dasharray="3,3" />
<text x="300.0" y="45.0" text-anchor="middle" font-size="13" font-weight="500" fill="#374151">Craft</text>
<line x1="300" y1="300" x2="499.2" y2="185.0" stroke="#9ca3af" stroke-width="1" />
<line x1="300" y1="300" x2="366.0" y2="300.0" stroke="#d1d5db" stroke-width="0.5" stroke-dasharray="3,3" />
<text x="516.5" y="180.0" text-anchor="start" font-size="13" font-weight="500" fill="#374151">Infra</text>
<line x1="300" y1="300" x2="499.2" y2="415.0" stroke="#9ca3af" stroke-width="1" />
<line x1="300" y1="300" x2="333.0" y2="357.2" stroke="#d1d5db" stroke-width="0.5" stroke-dasharray="3,3" />
<text x="516.5" y="430.0" text-anchor="start" font-size="13" font-weight="500" fill="#374151">Domain</text>
<line x1="300" y1="300" x2="300.0" y2="530.0" stroke="#9ca3af" stroke-width="1" />
<line x1="300" y1="300" x2="267.0" y2="357.2" stroke="#d1d5db" stroke-width="0.5" stroke-dasharray="3,3" />
<text x="300.0" y="565.0" text-anchor="middle" font-size="13" font-weight="500" fill="#374151">Decomposition</text>
<line x1="300" y1="300" x2="100.8" y2="415.0" stroke="#9ca3af" stroke-width="1" />
<line x1="300" y1="300" x2="234.0" y2="300.0" stroke="#d1d5db" stroke-width="0.5" stroke-dasharray="3,3" />
<text x="83.5" y="430.0" text-anchor="end" font-size="13" font-weight="500" fill="#374151">Systems</text>
<line x1="300" y1="300" x2="100.8" y2="185.0" stroke="#9ca3af" stroke-width="1" />
<line x1="300" y1="300" x2="267.0" y2="242.8" stroke="#d1d5db" stroke-width="0.5" stroke-dasharray="3,3" />
<text x="83.5" y="180.0" text-anchor="end" font-size="13" font-weight="500" fill="#374151">PeerDev</text>
<polygon points="300.0,190.0 316.5,271.4 442.9,217.5 333.0,300.0 490.5,410.0 316.5,328.6 300.0,520.0 283.5,328.6 109.5,410.0 267.0,300.0 157.1,217.5 283.5,271.4" fill="#2563eb20" stroke="#2563eb" stroke-width="2" opacity="1" />
<circle cx="300.0" cy="190.0" r="4" fill="#2563eb" />
<circle cx="442.9" cy="217.5" r="4" fill="#2563eb" />
<circle cx="490.5" cy="410.0" r="4" fill="#2563eb" />
<circle cx="300.0" cy="520.0" r="4" fill="#2563eb" />
<circle cx="109.5" cy="410.0" r="4" fill="#2563eb" />
<circle cx="157.1" cy="217.5" r="4" fill="#2563eb" />
<circle cx="316.5" cy="271.4" r="2" fill="#9ca3af" opacity="0.4" />
<circle cx="333.0" cy="300.0" r="2" fill="#9ca3af" opacity="0.4" />
<circle cx="316.5" cy="328.6" r="2" fill="#9ca3af" opacity="0.4" />
<circle cx="283.5" cy="328.6" r="2" fill="#9ca3af" opacity="0.4" />
<circle cx="267.0" cy="300.0" r="2" fill="#9ca3af" opacity="0.4" />
<circle cx="283.5" cy="271.4" r="2" fill="#9ca3af" opacity="0.4" />
<text x="300.0" y="175.0" text-anchor="middle" font-size="14" font-weight="700" fill="#2563eb">2</text>
<text x="455.9" y="210.0" text-anchor="middle" font-size="14" font-weight="700" fill="#2563eb">3</text>
<text x="503.5" y="417.5" text-anchor="middle" font-size="14" font-weight="700" fill="#2563eb">4</text>
<text x="300.0" y="535.0" text-anchor="middle" font-size="14" font-weight="700" fill="#2563eb">4</text>
<text x="96.5" y="417.5" text-anchor="middle" font-size="14" font-weight="700" fill="#2563eb">4</text>
<text x="144.1" y="210.0" text-anchor="middle" font-size="14" font-weight="700" fill="#2563eb">3</text>
<text x="300" y="640" text-anchor="middle" font-size="10" fill="#9ca3af">1=Following  2=Owning  3=Driving  4=Shaping</text>
</svg>